<svg xmlns="http://www.w3.org/2000/svg" width="160" height="48" viewBox="0 0 160 48" fill="none">
  <rect width="160" height="48" rx="8" fill="#0B1220"/>
  <path d="M26.8 30.4h-5.5l-1.2 3.6h-3.4l5.6-15.7h3.6l5.6 15.7h-3.5l-1.2-3.6Zm-4.6-2.7h3.7l-1.8-5.6-1.9 5.6Z" fill="#F3F4F6"/>
  <path d="M37.7 20.5c2.8 0 4.6 1.7 4.6 4.7V34h-3.1v-8.1c0-1.7-.9-2.7-2.3-2.7-1.5 0-2.4 1-2.4 2.8V34h-3.1V20.8h2.9v1.6c.8-1.2 2-1.9 3.4-1.9Z" fill="#F3F4F6"/>
  <path d="M45.3 37.4c3.8 2.1 9.2 3.5 13.9 3.6 4.2.1 7.7-1 10.9-3.2" stroke="#FF9900" stroke-width="2.4" stroke-linecap="round"/>
  <path d="m66.6 35.2 4.8 1.9-2.2 4.6" stroke="#FF9900" stroke-width="2.4" stroke-linecap="round" stroke-linejoin="round"/>
</svg>
