<svg xmlns="http://www.w3.org/2000/svg" width="320" height="96" viewBox="0 0 320 96" fill="none">
  <path d="M36 66.8V31.4h17.7c11 0 17.7 5.4 17.7 14.1 0 9-6.9 14.4-18.3 14.4h-8.2v6.9H36Zm8.9-14.3h8.2c5.7 0 8.9-2.5 8.9-6.8 0-4.1-3.1-6.6-8.6-6.6h-8.5v13.4Z" fill="#111111"/>
  <path d="M87 66.8V31.4h9.2v35.4H87Z" fill="#111111"/>
  <path d="M120.9 67.7c-10.2 0-16.7-6.8-16.7-17.9 0-11 6.3-18 16.3-18 9.8 0 15.5 6.6 15.5 17.7v2.9h-22.8c.6 4.9 3.7 7.8 8.4 7.8 3.3 0 5.9-1.4 7.4-4l6.8 3.8c-2.9 5-8.2 7.7-14.9 7.7Zm-7.5-20.6h13.9c-.5-4.6-3-7.3-6.8-7.3-3.9 0-6.6 2.6-7.1 7.3Z" fill="#111111"/>
  <path d="M147.9 74.2c14.1 7.8 34.1 12.9 51.8 13.1 15.5.2 28.6-3.7 40.4-11.7" stroke="#FF9900" stroke-width="5.6" stroke-linecap="round"/>
  <path d="m226.9 66.1 17.7 6.9-8 16.7" stroke="#FF9900" stroke-width="5.6" stroke-linecap="round" stroke-linejoin="round"/>
</svg>
