<svg xmlns="http://www.w3.org/2000/svg" width="120" height="48" viewBox="0 0 120 48" fill="none">
  <path d="M70.2 12.5c1.5-1.8 2.5-4.2 2.2-6.7-2.2.1-4.8 1.5-6.4 3.3-1.4 1.6-2.6 4.1-2.2 6.5 2.4.2 4.8-1.2 6.4-3.1Z" fill="#111111"/>
  <path d="M83.7 34.3c-1.1 2.6-1.6 3.8-3 6.1-1.9 3.2-4.6 7.2-8 7.2-3 0-3.8-2-7.8-2-4 0-4.9 2-7.9 2-3.3 0-5.8-3.5-7.7-6.6-5.4-8.9-5.9-19.3-2.6-24.4 2.4-3.8 6.1-6.1 9.6-6.1 3.6 0 5.8 2 8.7 2 2.8 0 4.6-2 8.7-2 3.1 0 6.3 1.7 8.7 4.7-7.8 4.2-6.5 15.5 1.3 19.1Z" fill="#111111"/>
</svg>
