<svg xmlns="http://www.w3.org/2000/svg" width="160" height="48" viewBox="0 0 160 48" fill="none">
  <rect width="160" height="48" rx="8" fill="#0B1220"/>
  <path d="M30.2 24.6c0 5.7-3.9 9.8-9.7 9.8-5.7 0-10.3-4.6-10.3-10.3 0-5.7 4.6-10.3 10.3-10.3 3.1 0 5.3 1.2 6.9 2.8l-2 2c-1.2-1.1-2.9-1.9-4.9-1.9-4 0-7.2 3.3-7.2 7.4 0 4.1 3.2 7.4 7.2 7.4 2.6 0 4.1-1 5.1-2.1.8-.8 1.3-2 1.5-3.7h-6.6V23h9.4c.1.5.2 1 .2 1.6Z" fill="#F3F4F6"/>
  <circle cx="53" cy="24" r="4.2" fill="#4285F4"/>
  <circle cx="63.2" cy="24" r="4.2" fill="#EA4335"/>
  <circle cx="73.4" cy="24" r="4.2" fill="#FBBC05"/>
  <circle cx="83.6" cy="24" r="4.2" fill="#34A853"/>
  <path d="M95.5 30V18h3.1v1.7h.1c.7-1.2 2-2.1 3.7-2.1 2.8 0 5.3 2.4 5.3 6.4 0 4-2.5 6.4-5.3 6.4-1.7 0-3-.9-3.7-2h-.1V30h-3.1Zm6.3-2.5c1.8 0 3-1.5 3-3.5 0-2.1-1.2-3.5-3-3.5-1.8 0-3.1 1.5-3.1 3.5 0 2 1.3 3.5 3.1 3.5Z" fill="#F3F4F6"/>
</svg>
