<svg xmlns="http://www.w3.org/2000/svg" width="160" height="48" viewBox="0 0 160 48" fill="none">
  <path d="M69.6 24.5c0 7.7-5.4 13.4-13.3 13.4-7.8 0-14.1-6.3-14.1-14.1s6.3-14.1 14.1-14.1c4.2 0 7.2 1.6 9.5 3.9l-2.7 2.7c-1.6-1.5-4-2.6-6.8-2.6-5.5 0-9.9 4.4-9.9 10.1s4.4 10.1 9.9 10.1c3.6 0 5.7-1.4 7-2.9 1.1-1.1 1.8-2.7 2.1-5h-9.1v-3.9H69.3c.2.7.3 1.4.3 2.2Z" fill="#4285F4"/>
  <path d="M84.9 18.4c5.1 0 9.3 4 9.3 9.7s-4.2 9.7-9.3 9.7c-5.1 0-9.3-4-9.3-9.7s4.2-9.7 9.3-9.7Zm0 15.7c2.8 0 5.1-2.3 5.1-6s-2.3-6-5.1-6-5.1 2.3-5.1 6 2.3 6 5.1 6Z" fill="#EA4335"/>
  <path d="M107 18.4c5.1 0 9.3 4 9.3 9.7s-4.2 9.7-9.3 9.7c-5.1 0-9.3-4-9.3-9.7s4.2-9.7 9.3-9.7Zm0 15.7c2.8 0 5.1-2.3 5.1-6s-2.3-6-5.1-6-5.1 2.3-5.1 6 2.3 6 5.1 6Z" fill="#FBBC05"/>
  <path d="M138 19v17.5c0 7.2-4.3 10.2-9.4 10.2-4.8 0-7.7-3.2-8.8-5.8l3.6-1.5c.6 1.5 2.2 3.3 5.2 3.3 3.4 0 5.4-2.1 5.4-6v-1.4h-.1c-1 1.2-2.9 2.4-5.3 2.4-5 0-9.6-4.4-9.6-9.6 0-5.3 4.6-9.6 9.6-9.6 2.4 0 4.3 1.1 5.3 2.3h.1V19h4Zm-3.7 9.3c0-3.3-2.2-6.1-5.1-6.1-2.9 0-5.3 2.8-5.3 6.1 0 3.3 2.4 6 5.3 6 2.9 0 5.1-2.7 5.1-6Z" fill="#34A853"/>
</svg>
</svg>
