<svg xmlns="http://www.w3.org/2000/svg" width="180" height="48" viewBox="0 0 180 48" fill="none">
  <path d="M48.4 34c-4.5 0-7-4.3-9.6-8.8-2.5-4.2-4.8-8.1-8.3-8.1-3.4 0-5.5 3-5.5 6.9 0 6.3 3.9 10.9 9.3 10.9 3.4 0 5.9-1.6 8.4-4.7 2.2-2.7 3.5-5.1 5.7-5.1 2.2 0 3.5 2.4 5.7 5.1 2.5 3.1 5 4.7 8.4 4.7 5.4 0 9.3-4.6 9.3-10.9 0-3.9-2.1-6.9-5.5-6.9-3.5 0-5.8 3.9-8.3 8.1-2.6 4.5-5.1 8.8-9.6 8.8Z" stroke="#0866FF" stroke-width="3.2" stroke-linecap="round" stroke-linejoin="round"/>
  <path d="M84.3 35V13.8h6.1L98 26.2l7.7-12.4h6V35h-5.4V22.5l-6.6 10.6h-3L90 22.5V35h-5.7Z" fill="#1C2B33"/>
  <path d="M124.8 35.4c-5.7 0-9.4-3.8-9.4-9.6 0-5.8 3.6-9.7 9.2-9.7 5.4 0 8.9 3.8 8.9 9.3v1.7h-12.6c.2 2.5 1.8 4.1 4.3 4.1 1.8 0 3-.7 3.8-2l3.7 2.1c-1.4 2.4-4.2 4.1-7.9 4.1Zm-3.8-11.8h7.1c-.3-2.2-1.6-3.6-3.5-3.6-2 0-3.3 1.3-3.6 3.6Z" fill="#1C2B33"/>
  <path d="M138.8 35V21h-4v-4.3h4v-5.4h5.5v5.4h4.9V21h-4.9v14h-5.5Z" fill="#1C2B33"/>
  <path d="M157.6 35.4c-4.8 0-8.5-4-8.5-9.7s3.7-9.7 8.5-9.7c2.4 0 4.2 1 5.4 2.6h.1v-1.9h5.3V35h-5.3v-2h-.1c-1.2 1.5-3 2.4-5.4 2.4Zm1.1-4.7c2.7 0 4.8-2.1 4.8-5s-2.1-5-4.8-5c-2.6 0-4.8 2.1-4.8 5s2.2 5 4.8 5Z" fill="#1C2B33"/>
</svg>
