<svg xmlns="http://www.w3.org/2000/svg" width="160" height="48" viewBox="0 0 160 48" fill="none">
  <rect width="160" height="48" rx="8" fill="#0B1220"/>
  <path d="M34.6 31.8c-3.6 0-5.4-3.5-7.4-7.4-1.8-3.5-3.6-6.9-6.5-6.9-2.5 0-4.1 2.3-4.1 5.2 0 4.9 3 8.6 7.1 8.6 2.6 0 4.4-1.2 6.5-3.7 1.6-1.9 2.8-3.8 4.4-3.8 1.6 0 2.8 1.9 4.4 3.8 2.1 2.5 3.9 3.7 6.5 3.7 4.1 0 7.1-3.7 7.1-8.6 0-2.9-1.6-5.2-4.1-5.2-2.9 0-4.7 3.4-6.5 6.9-2 3.9-3.8 7.4-7.4 7.4Z" stroke="#4F8EF7" stroke-width="2.7" stroke-linecap="round" stroke-linejoin="round"/>
  <path d="M62.6 31V17.5h3.1l3.9 6.8 3.9-6.8h3.1V31h-3V22.6l-3.4 5.9h-1.3l-3.4-5.9V31h-2.9Z" fill="#F3F4F6"/>
  <path d="M83.3 31.3c-3.5 0-5.8-2.4-5.8-6 0-3.6 2.3-6 5.7-6 3.3 0 5.5 2.4 5.5 5.8v1h-8.2c.1 1.7 1.2 2.8 3 2.8 1.3 0 2.2-.5 2.8-1.4l2.2 1.4c-1 1.5-2.8 2.4-5.2 2.4Zm-2.7-7.3h5.1c-.2-1.3-1.1-2.2-2.5-2.2-1.4 0-2.3.8-2.6 2.2Z" fill="#F3F4F6"/>
</svg>
